<?xml version="1.0" encoding="utf-8"?>
<!-- Generator: Adobe Illustrator 21.0.0, SVG Export Plug-In . SVG Version: 6.00 Build 0)  -->
<svg version="1.1" id="Layer_1" xmlns="http://www.w3.org/2000/svg" xmlns:xlink="http://www.w3.org/1999/xlink" x="0px" y="0px"
	 viewBox="0 0 16 16" style="enable-background:new 0 0 16 16;" xml:space="preserve">
<style type="text/css">
	.st0{fill:#FFFFFF;}
</style>
<path class="st0" d="M16,16L16,16L16,16l0-5.9C16,7.3,15.4,5,12,5c-1.6,0-2.7,0.9-3.1,1.7h0V5.3H5.7V16H9v-5.3C9,9.3,9.2,8,11,8
	c1.7,0,1.7,1.6,1.7,2.8V16H16z"/>
<path class="st0" d="M0.3,5.3h3.3V16H0.3V5.3z"/>
<path class="st0" d="M1.9,0C0.9,0,0,0.9,0,1.9C0,3,0.9,3.9,1.9,3.9C3,3.9,3.8,3,3.8,1.9C3.8,0.9,3,0,1.9,0L1.9,0z"/>
</svg>
